<svg width="24" height="24" viewBox="0 0 24 24" fill="none" xmlns="http://www.w3.org/2000/svg">
<path fill-rule="evenodd" clip-rule="evenodd" d="M3.48859 6.00387C2.76293 7.24787 2.5241 8.97403 2.96996 10.7575C3.13041 11.3992 3.59685 12.2243 4.33609 13.174C5.06098 14.1052 5.98622 15.0787 6.96618 16.0127C8.90927 17.8648 11.0004 19.4985 11.9998 20.254C12.9992 19.4985 15.0903 17.8648 17.0334 16.0127C18.0134 15.0787 18.9386 14.1052 19.6635 13.174C20.4028 12.2243 20.8692 11.3992 21.0297 10.7575C21.4755 8.97403 21.2367 7.24787 20.511 6.00387C19.8027 4.78965 18.62 4 16.9998 4C15.5902 4 14.5967 5.04228 13.8942 6.44721C13.5567 7.12228 13.3273 7.80745 13.1821 8.33015C13.11 8.58959 13.06 8.80435 13.0284 8.95172C12.9165 9.47392 12.3141 9.5 11.9998 9.5C11.6855 9.5 11.0821 9.46905 10.9712 8.95172C10.9396 8.80436 10.8896 8.58959 10.8175 8.33015C10.6723 7.80745 10.4429 7.12229 10.1054 6.44722C9.4029 5.04228 8.40938 4 6.9998 4C5.37961 4 4.19688 4.78965 3.48859 6.00387ZM11.9998 5.77011C12.0339 5.69784 12.0691 5.62535 12.1054 5.55279C12.9029 3.95772 15.4094 1 17.9998 1C20.3796 1 21.1969 3.21035 22.2386 4.99613C23.2629 6.75212 23.5241 9.02597 22.9699 11.2425C22.7074 12.2927 22.0352 13.3832 21.2417 14.4025C20.4339 15.4402 19.4325 16.4891 18.4133 17.4605C16.374 19.4042 14.1955 21.1022 13.1808 21.8683C12.4801 22.3974 11.5195 22.3974 10.8188 21.8683C9.80415 21.1022 7.62565 19.4042 5.5863 17.4605C4.56715 16.4891 3.56568 15.4402 2.75788 14.4025C1.96443 13.3832 1.29222 12.2927 1.02968 11.2425C0.47553 9.02597 0.7367 6.75213 1.76103 4.99613C2.80273 3.21035 4.11995 1 6.49976 1C9.09016 1 11.0967 3.95772 11.8942 5.55278C11.9305 5.62535 11.9657 5.69784 11.9998 5.77011Z" fill="#0F0F0F"/>
</svg>
