<svg width="158" height="110" viewBox="0 0 158 110" fill="none" xmlns="http://www.w3.org/2000/svg">
<path d="M47.0555 55C47.3795 55 47.6437 54.735 47.6437 54.41V35.34L49.0493 36.94V54.41C49.0493 54.735 49.3135 55 49.6375 55C49.9614 55 50.2256 54.735 50.2256 54.41V36.955L51.7608 35.415V54.41C51.7608 54.735 52.025 55 52.349 55C52.673 55 52.9371 54.735 52.9371 54.41V34.585H102.966V54.41C102.966 54.735 103.23 55 103.554 55C103.878 55 104.142 54.735 104.142 54.41V35.41L105.682 36.955V54.41C105.682 54.735 105.946 55 106.27 55C106.594 55 106.859 54.735 106.859 54.41V36.935L108.259 35.345V54.41C108.259 54.735 108.523 55 108.847 55C109.171 55 109.436 54.735 109.436 54.41V33.78C109.436 33.775 109.436 33.77 109.436 33.77C109.436 33.72 109.421 33.675 109.406 33.625C109.401 33.595 109.401 33.565 109.386 33.535C109.366 33.5 109.346 33.47 109.321 33.435C109.296 33.4 109.276 33.37 109.236 33.34L103.983 28.075L103.963 28.05C103.933 28.025 103.903 27.995 103.873 27.98C103.868 27.98 103.868 27.98 103.868 27.975L103.863 27.97C103.858 27.965 103.848 27.965 103.838 27.96C103.813 27.945 103.788 27.935 103.768 27.925C103.738 27.915 103.708 27.9 103.674 27.895H103.669C103.649 27.89 103.629 27.89 103.609 27.885C103.589 27.88 103.564 27.875 103.544 27.875H89.5876V26.22V23.955V22.3H90.7041C92.5484 22.3 94.0487 20.795 94.0487 18.945C94.0487 17.09 92.5484 15.585 90.7041 15.585H89.5876V14.19H93.8742C93.9141 14.19 93.959 14.185 93.9988 14.18C94.0636 14.17 94.1234 14.15 94.1733 14.12L99.6412 11.18C99.6611 11.175 99.6761 11.16 99.696 11.15C99.7409 11.125 99.7858 11.095 99.8206 11.06L99.8256 11.055C99.8306 11.05 99.8306 11.05 99.8356 11.045C99.8605 11.02 99.8854 10.995 99.9054 10.965C99.9054 10.96 99.9104 10.96 99.9104 10.96C99.9203 10.94 99.9303 10.92 99.9403 10.9C99.9453 10.89 99.9452 10.88 99.9502 10.875C99.9552 10.87 99.9552 10.86 99.9602 10.855C99.9652 10.84 99.9752 10.83 99.9752 10.815C99.9801 10.81 99.9801 10.805 99.9801 10.79C100 10.745 100.005 10.69 100.005 10.635V4.36498C100.005 4.31998 100 4.27499 99.9851 4.23498C99.9801 4.20999 99.9702 4.18999 99.9602 4.16499C99.9552 4.14999 99.9502 4.13998 99.9453 4.12498C99.9453 4.11998 99.9453 4.11998 99.9403 4.11498C99.9403 4.10998 99.9403 4.10999 99.9353 4.10499C99.9153 4.06999 99.9004 4.03498 99.8705 3.99998C99.8605 3.98498 99.8456 3.97498 99.8356 3.96498C99.8256 3.95498 99.8206 3.94999 99.8107 3.93999C99.8007 3.92999 99.7907 3.91498 99.7758 3.90498C99.7658 3.89498 99.7459 3.87998 99.7359 3.87498L95.0904 0.174988C94.9907 0.0899878 94.8611 0.0499878 94.7266 0.0499878H94.6867C94.6817 0.0499878 94.6817 0.0499878 94.6767 0.0499878H61.2213C61.2163 0.0499878 61.2163 0.0499878 61.2113 0.0499878H61.1714C61.0368 0.0499878 60.9072 0.0899878 60.8026 0.174988L56.1671 3.87498C56.1571 3.87998 56.1371 3.89498 56.1272 3.90498C56.1172 3.91498 56.1072 3.92499 56.0923 3.93999C56.0823 3.94999 56.0724 3.95999 56.0624 3.96999C56.0524 3.97999 56.0424 3.98998 56.0325 3.99998C56.0026 4.03498 55.9876 4.06999 55.9677 4.10499C55.9627 4.10999 55.9627 4.10998 55.9627 4.11498V4.11999C55.9527 4.13499 55.9527 4.15499 55.9428 4.17499C55.9328 4.19499 55.9228 4.21498 55.9228 4.23498C55.9129 4.27499 55.9029 4.31998 55.9029 4.36498V10.635C55.9029 10.69 55.9079 10.74 55.9278 10.79C55.9278 10.8 55.9278 10.81 55.9328 10.815C55.9328 10.825 55.9428 10.835 55.9477 10.845C55.9527 10.855 55.9577 10.87 55.9627 10.88C55.9677 10.885 55.9677 10.895 55.9727 10.9C55.9826 10.92 55.9926 10.94 56.0026 10.96C56.0026 10.96 56.0076 10.96 56.0076 10.965C56.0275 10.99 56.0474 11.015 56.0674 11.035C56.0723 11.04 56.0773 11.05 56.0873 11.055C56.0873 11.055 56.0873 11.055 56.0923 11.06C56.1272 11.095 56.1671 11.125 56.2169 11.15C56.2368 11.16 56.2518 11.175 56.2717 11.18L61.7347 14.12C61.7945 14.15 61.8543 14.165 61.9191 14.18C61.954 14.185 61.9938 14.19 62.0387 14.19H66.3253V15.585H65.2138C63.3646 15.585 61.8643 17.09 61.8643 18.945C61.8643 20.795 63.3646 22.3 65.2138 22.3H66.3253V23.955V26.22V27.875H52.3689C52.349 27.875 52.329 27.88 52.3091 27.885C52.2892 27.885 52.2692 27.89 52.2493 27.895C52.1945 27.905 52.1446 27.925 52.0948 27.955C52.0798 27.96 52.0699 27.96 52.0549 27.97C52.0499 27.97 52.0499 27.975 52.0499 27.975C52.0499 27.975 52.0499 27.975 52.0449 27.975C52.015 27.995 51.9801 28.02 51.9552 28.045L51.9353 28.07L46.6817 33.335C46.6717 33.345 46.6667 33.36 46.6518 33.375C46.6069 33.425 46.5621 33.475 46.5371 33.535C46.5222 33.565 46.5222 33.6 46.5122 33.63C46.5023 33.67 46.4873 33.715 46.4823 33.755C46.4823 33.765 46.4773 33.77 46.4773 33.78V54.41C46.4674 54.735 46.7266 55 47.0555 55ZM49.6624 35.85L47.863 33.8L52.2543 29.405L53.7446 31.76L51.9353 33.57L49.6624 35.85ZM66.8935 29.055H89.0144H102.487L101.097 31.25H54.8113L53.4206 29.055H66.8935ZM53.7695 33.405L54.7365 32.435H101.181L102.148 33.405H53.7695ZM108.05 33.805L106.251 35.85L103.973 33.575L102.173 31.765L103.664 29.41L108.05 33.805ZM67.4817 24.545H88.4213V25.63H67.4817V24.545ZM62.2929 13.015L60.04 10.42V4.50498L61.5652 1.23499H94.3378L95.863 4.50498V10.42L93.61 13.015H89.0044H66.8836H62.2929ZM57.0792 10.05V4.96498H58.8686V10.05H57.0792ZM98.8387 4.96498V10.05H97.0493V4.96498H98.8387ZM96.4163 11.585L96.7253 11.23H97.0792L96.4163 11.585ZM97.7322 3.78499H96.83L96.2967 2.63998L97.7322 3.78499ZM59.6163 2.63998L59.0829 3.77998H58.1808H58.1857L59.6163 2.63998ZM58.8387 11.23H59.1876L59.4917 11.585L58.8387 11.23ZM67.4817 14.195H88.4213V15.59H67.4817V14.195ZM63.0206 18.95C63.0206 17.75 63.9976 16.77 65.1938 16.77H66.8935H89.0144H90.7191C91.9153 16.77 92.8873 17.75 92.8873 18.95C92.8873 20.15 91.9153 21.125 90.7191 21.125H89.0144H66.8935H65.1938C63.9976 21.12 63.0206 20.15 63.0206 18.95ZM88.4262 22.305V23.37H67.4867V22.305H88.4262ZM67.4817 26.815H88.4213V27.88H67.4817V26.815Z" fill="url(#paint0_linear_33_210)"/>
<path d="M109.436 104.11C109.436 104.09 109.441 104.075 109.441 104.055C109.441 104.05 109.441 104.045 109.441 104.04V83.41C109.441 83.085 109.176 82.82 108.852 82.82C108.528 82.82 108.264 83.085 108.264 83.41V102.475L106.864 100.885V83.415C106.864 83.09 106.599 82.825 106.275 82.825C105.951 82.825 105.687 83.09 105.687 83.415V100.87L104.147 102.415V83.415C104.147 83.09 103.883 82.825 103.559 82.825C103.235 82.825 102.971 83.09 102.971 83.415V103.24H52.9421V83.415C52.9421 83.09 52.6779 82.825 52.3539 82.825C52.0299 82.825 51.7657 83.09 51.7657 83.415V102.41L50.2305 100.87V83.415C50.2305 83.09 49.9664 82.825 49.6424 82.825C49.3184 82.825 49.0542 83.09 49.0542 83.415V100.885L47.6486 102.485V83.415C47.6486 83.09 47.3844 82.825 47.0604 82.825C46.7365 82.825 46.4723 83.09 46.4723 83.415V104.045C46.4723 104.055 46.4773 104.06 46.4773 104.07C46.4773 104.115 46.4922 104.155 46.5022 104.195C46.5122 104.23 46.5122 104.26 46.5271 104.295C46.552 104.35 46.5919 104.395 46.6318 104.445C46.6467 104.46 46.6517 104.48 46.6667 104.495L51.9402 109.785C51.9651 109.81 52 109.84 52.0299 109.855H52.0349C52.0399 109.855 52.0399 109.86 52.0399 109.86C52.0848 109.89 52.1296 109.91 52.1795 109.925C52.2393 109.945 52.2941 109.955 52.3539 109.955H103.559C103.669 109.955 103.778 109.925 103.873 109.865L103.878 109.86L103.883 109.855C103.913 109.835 103.943 109.81 103.973 109.785L109.246 104.495C109.281 104.465 109.306 104.435 109.331 104.4C109.351 104.375 109.366 104.345 109.376 104.325C109.376 104.325 109.376 104.32 109.381 104.32C109.386 104.31 109.391 104.295 109.396 104.285C109.416 104.215 109.431 104.165 109.436 104.11ZM102.143 104.415L101.176 105.385H54.7315L53.7645 104.415H102.143ZM54.8162 106.565H101.102L102.492 108.76H53.4256L54.8162 106.565ZM51.9203 104.23C51.9252 104.24 51.9402 104.255 51.9502 104.26L53.7396 106.055L53.7446 106.06L52.2542 108.42L47.8629 104.025L49.6623 101.975L51.9203 104.23ZM103.664 108.415L102.168 106.06L103.973 104.25L106.25 101.975L108.05 104.02L103.664 108.415Z" fill="url(#paint1_linear_33_210)"/>
<path d="M55.7982 54.41V36.715C55.7982 36.39 55.539 36.125 55.21 36.125C54.886 36.125 54.6218 36.39 54.6218 36.715V54.41C54.6218 54.735 54.886 55 55.21 55C55.534 55 55.7982 54.735 55.7982 54.41Z" fill="url(#paint2_linear_33_210)"/>
<path d="M77.9539 101.695C78.2829 101.695 78.542 101.43 78.542 101.105C78.542 100.78 78.2829 100.515 77.9539 100.515C67.4517 100.515 58.6293 93.135 56.3664 83.28C56.3065 83.01 56.0723 82.82 55.7981 82.82C55.4243 82.82 55.1352 83.17 55.2199 83.535C57.5975 93.925 66.8885 101.695 77.9539 101.695Z" fill="url(#paint3_linear_33_210)"/>
<path d="M99.5415 54.54C99.6013 54.81 99.8355 55 100.11 55C100.484 55 100.773 54.65 100.688 54.285C98.3103 43.895 89.0193 36.125 77.9489 36.125C77.6249 36.125 77.3608 36.39 77.3608 36.715C77.3608 37.04 77.6249 37.305 77.9489 37.305C88.4611 37.305 97.2885 44.68 99.5415 54.54Z" fill="url(#paint4_linear_33_210)"/>
<path d="M100.698 101.695C101.027 101.695 101.286 101.43 101.286 101.105V83.41C101.286 83.085 101.022 82.82 100.698 82.82C100.374 82.82 100.11 83.085 100.11 83.41V101.105C100.11 101.43 100.374 101.695 100.698 101.695Z" fill="url(#paint5_linear_33_210)"/>
<path d="M89.0143 19.54C89.3383 19.54 89.6025 19.275 89.6025 18.95C89.6025 18.625 89.3383 18.36 89.0143 18.36H66.8985C66.5745 18.36 66.3103 18.625 66.3103 18.95C66.3103 19.275 66.5745 19.54 66.8985 19.54H89.0143Z" fill="url(#paint6_linear_33_210)"/>
<path d="M11.28 56.6017C12.58 56.6017 13.63 56.8017 14.43 57.2017C15.23 57.5817 15.98 58.0317 16.68 58.5517C16.94 58.7517 17.14 58.8517 17.28 58.8517C17.66 58.8517 17.91 58.2417 18.03 57.0217H18.72C18.68 57.7617 18.65 58.6617 18.63 59.7217C18.61 60.7817 18.6 62.1817 18.6 63.9217H17.91C17.77 63.0817 17.6 62.2717 17.4 61.4917C17.2 60.7117 16.87 60.0417 16.41 59.4817C15.83 58.7417 15.07 58.1717 14.13 57.7717C13.19 57.3517 12.22 57.1417 11.22 57.1417C10.22 57.1417 9.31 57.3917 8.49 57.8917C7.69 58.3717 7 59.0717 6.42 59.9917C5.84 60.9117 5.39 62.0217 5.07 63.3217C4.77 64.6017 4.62 66.0517 4.62 67.6717C4.62 71.2717 5.2 73.9117 6.36 75.5917C7.52 77.2517 9.32 78.0817 11.76 78.0817C12.48 78.0817 13.1 77.9817 13.62 77.7817C14.16 77.5617 14.58 77.3517 14.88 77.1517C15.26 76.8917 15.5 76.6517 15.6 76.4317C15.7 76.1917 15.75 75.8817 15.75 75.5017V72.6217C15.75 71.8017 15.67 71.1917 15.51 70.7917C15.35 70.3917 15.05 70.1217 14.61 69.9817C14.19 69.8417 13.56 69.7617 12.72 69.7417V69.1417C13.08 69.1617 13.5 69.1817 13.98 69.2017C14.46 69.2017 14.96 69.2117 15.48 69.2317C16.02 69.2317 16.51 69.2317 16.95 69.2317C17.61 69.2317 18.2 69.2217 18.72 69.2017C19.26 69.1817 19.71 69.1617 20.07 69.1417V69.7417C19.63 69.7617 19.3 69.8317 19.08 69.9517C18.86 70.0717 18.71 70.3117 18.63 70.6717C18.57 71.0317 18.54 71.5817 18.54 72.3217V78.2617H17.94C17.92 77.9217 17.84 77.5517 17.7 77.1517C17.58 76.7517 17.39 76.5517 17.13 76.5517C17.01 76.5517 16.89 76.5817 16.77 76.6417C16.65 76.7017 16.44 76.8417 16.14 77.0617C15.48 77.5617 14.78 77.9617 14.04 78.2617C13.3 78.5417 12.44 78.6817 11.46 78.6817C9.4 78.6817 7.63 78.2617 6.15 77.4217C4.69 76.5617 3.57 75.3317 2.79 73.7317C2.01 72.1317 1.62 70.2217 1.62 68.0017C1.62 65.6617 2.04 63.6417 2.88 61.9417C3.72 60.2417 4.86 58.9317 6.3 58.0117C7.76 57.0717 9.42 56.6017 11.28 56.6017ZM40.7438 57.0217V57.6217C40.0638 57.6417 39.5438 57.7417 39.1838 57.9217C38.8438 58.1017 38.6138 58.3917 38.4938 58.7917C38.3738 59.1917 38.3138 59.7617 38.3138 60.5017V69.5317C38.3138 70.9317 38.2237 72.1517 38.0437 73.1917C37.8638 74.2317 37.5438 75.1317 37.0838 75.8917C36.5838 76.7317 35.8538 77.4117 34.8938 77.9317C33.9338 78.4317 32.8338 78.6817 31.5938 78.6817C30.6338 78.6817 29.7138 78.5617 28.8338 78.3217C27.9738 78.1017 27.2138 77.6817 26.5538 77.0617C25.9738 76.5017 25.5138 75.9117 25.1738 75.2917C24.8538 74.6717 24.6338 73.9117 24.5138 73.0117C24.3938 72.1117 24.3338 70.9817 24.3338 69.6217V60.2017C24.3338 59.4617 24.2738 58.9217 24.1538 58.5817C24.0338 58.2217 23.7938 57.9817 23.4338 57.8617C23.0938 57.7217 22.5838 57.6417 21.9038 57.6217V57.0217C22.3238 57.0417 22.8738 57.0617 23.5538 57.0817C24.2338 57.1017 24.9638 57.1117 25.7438 57.1117C26.4438 57.1117 27.1338 57.1017 27.8138 57.0817C28.5138 57.0617 29.0938 57.0417 29.5538 57.0217V57.6217C28.8738 57.6417 28.3538 57.7217 27.9938 57.8617C27.6538 57.9817 27.4238 58.2217 27.3038 58.5817C27.1838 58.9217 27.1238 59.4617 27.1238 60.2017V70.1317C27.1238 71.1517 27.1738 72.1217 27.2738 73.0417C27.3738 73.9417 27.5738 74.7417 27.8738 75.4417C28.1938 76.1217 28.6738 76.6617 29.3138 77.0617C29.9538 77.4417 30.8038 77.6317 31.8638 77.6317C33.3838 77.6317 34.5538 77.3017 35.3738 76.6417C36.2138 75.9617 36.7938 75.0317 37.1138 73.8517C37.4538 72.6717 37.6237 71.3417 37.6237 69.8617V60.5017C37.6237 59.7617 37.5338 59.1917 37.3538 58.7917C37.1938 58.3917 36.9138 58.1017 36.5137 57.9217C36.1138 57.7417 35.5738 57.6417 34.8938 57.6217V57.0217C35.2538 57.0417 35.7238 57.0617 36.3038 57.0817C36.9038 57.1017 37.4538 57.1117 37.9538 57.1117C38.4738 57.1117 38.9838 57.1017 39.4838 57.0817C40.0038 57.0617 40.4238 57.0417 40.7438 57.0217ZM57.773 57.0217C57.693 57.7217 57.633 58.4017 57.593 59.0617C57.573 59.7217 57.563 60.2217 57.563 60.5617C57.563 60.9217 57.573 61.2717 57.593 61.6117C57.613 61.9317 57.633 62.2017 57.653 62.4217H56.963C56.843 61.2417 56.673 60.3117 56.453 59.6317C56.233 58.9317 55.853 58.4417 55.313 58.1617C54.793 57.8617 54.003 57.7117 52.943 57.7117H50.453C49.773 57.7117 49.253 57.7717 48.893 57.8917C48.553 57.9917 48.323 58.2217 48.203 58.5817C48.083 58.9217 48.023 59.4617 48.023 60.2017V75.0817C48.023 75.8017 48.083 76.3417 48.203 76.7017C48.323 77.0617 48.553 77.3017 48.893 77.4217C49.253 77.5217 49.773 77.5717 50.453 77.5717H52.643C53.903 77.5717 54.853 77.4017 55.493 77.0617C56.153 76.7217 56.623 76.1717 56.903 75.4117C57.203 74.6317 57.423 73.5817 57.563 72.2617H58.253C58.193 72.8017 58.163 73.5217 58.163 74.4217C58.163 74.8017 58.173 75.3517 58.193 76.0717C58.233 76.7717 58.293 77.5017 58.373 78.2617C57.353 78.2217 56.203 78.2017 54.923 78.2017C53.643 78.1817 52.503 78.1717 51.503 78.1717C51.063 78.1717 50.493 78.1717 49.793 78.1717C49.113 78.1717 48.373 78.1817 47.573 78.2017C46.773 78.2017 45.963 78.2117 45.143 78.2317C44.323 78.2317 43.543 78.2417 42.803 78.2617V77.6617C43.483 77.6217 43.993 77.5417 44.333 77.4217C44.693 77.3017 44.933 77.0617 45.053 76.7017C45.173 76.3417 45.233 75.8017 45.233 75.0817V60.2017C45.233 59.4617 45.173 58.9217 45.053 58.5817C44.933 58.2217 44.693 57.9817 44.333 57.8617C43.993 57.7217 43.483 57.6417 42.803 57.6217V57.0217C43.543 57.0417 44.323 57.0617 45.143 57.0817C45.963 57.0817 46.773 57.0917 47.573 57.1117C48.373 57.1117 49.113 57.1117 49.793 57.1117C50.493 57.1117 51.063 57.1117 51.503 57.1117C52.423 57.1117 53.463 57.1117 54.623 57.1117C55.803 57.0917 56.853 57.0617 57.773 57.0217ZM52.613 67.2817C52.613 67.2817 52.613 67.3817 52.613 67.5817C52.613 67.7817 52.613 67.8817 52.613 67.8817H47.123C47.123 67.8817 47.123 67.7817 47.123 67.5817C47.123 67.3817 47.123 67.2817 47.123 67.2817H52.613ZM53.483 63.3217C53.403 64.4617 53.363 65.3317 53.363 65.9317C53.383 66.5317 53.393 67.0817 53.393 67.5817C53.393 68.0817 53.403 68.6317 53.423 69.2317C53.443 69.8317 53.493 70.7017 53.573 71.8417H52.883C52.803 71.2017 52.703 70.5817 52.583 69.9817C52.483 69.3617 52.243 68.8617 51.863 68.4817C51.503 68.0817 50.883 67.8817 50.003 67.8817V67.2817C50.663 67.2817 51.163 67.1517 51.503 66.8917C51.863 66.6117 52.123 66.2617 52.283 65.8417C52.443 65.4217 52.553 64.9917 52.613 64.5517C52.673 64.0917 52.733 63.6817 52.793 63.3217H53.483ZM61.0842 57.0217C61.5042 57.0417 62.0542 57.0617 62.7342 57.0817C63.4142 57.1017 64.0842 57.1117 64.7442 57.1117C65.6842 57.1117 66.5842 57.1017 67.4442 57.0817C68.3042 57.0617 68.9142 57.0517 69.2742 57.0517C70.8942 57.0517 72.2342 57.2817 73.2942 57.7417C74.3742 58.2017 75.1742 58.8317 75.6942 59.6317C76.2342 60.4117 76.5042 61.2917 76.5042 62.2717C76.5042 62.8717 76.3842 63.5117 76.1442 64.1917C75.9042 64.8717 75.4842 65.5117 74.8842 66.1117C74.3042 66.7117 73.5042 67.2117 72.4842 67.6117C71.4642 67.9917 70.1742 68.1817 68.6142 68.1817H65.7342V67.5817H68.3142C69.7342 67.5817 70.8142 67.3617 71.5542 66.9217C72.3142 66.4617 72.8242 65.8617 73.0842 65.1217C73.3642 64.3617 73.5042 63.5217 73.5042 62.6017C73.5042 61.0217 73.1242 59.8017 72.3642 58.9417C71.6242 58.0617 70.3442 57.6217 68.5242 57.6217C67.6042 57.6217 67.0042 57.7917 66.7242 58.1317C66.4442 58.4717 66.3042 59.1617 66.3042 60.2017V75.0817C66.3042 75.8017 66.3642 76.3417 66.4842 76.7017C66.6042 77.0617 66.8342 77.3017 67.1742 77.4217C67.5342 77.5417 68.0542 77.6217 68.7342 77.6617V78.2617C68.2742 78.2217 67.6942 78.2017 66.9942 78.2017C66.3142 78.1817 65.6242 78.1717 64.9242 78.1717C64.1442 78.1717 63.4142 78.1817 62.7342 78.2017C62.0542 78.2017 61.5042 78.2217 61.0842 78.2617V77.6617C61.7642 77.6217 62.2742 77.5417 62.6142 77.4217C62.9742 77.3017 63.2142 77.0617 63.3342 76.7017C63.4542 76.3417 63.5142 75.8017 63.5142 75.0817V60.2017C63.5142 59.4617 63.4542 58.9217 63.3342 58.5817C63.2142 58.2217 62.9742 57.9817 62.6142 57.8617C62.2742 57.7217 61.7642 57.6417 61.0842 57.6217V57.0217ZM65.8542 67.6717C66.9342 67.7117 67.7842 67.7617 68.4042 67.8217C69.0242 67.8617 69.5242 67.9017 69.9042 67.9417C70.3042 67.9817 70.6842 68.0317 71.0442 68.0917C72.3842 68.3117 73.3442 68.7217 73.9242 69.3217C74.5242 69.9017 74.9642 70.8117 75.2442 72.0517L75.9942 75.1117C76.1942 75.9917 76.3942 76.6317 76.5942 77.0317C76.8142 77.4117 77.1442 77.5917 77.5842 77.5717C77.9242 77.5517 78.2042 77.4417 78.4242 77.2417C78.6642 77.0417 78.9142 76.7717 79.1742 76.4317L79.6242 76.7617C79.2042 77.3817 78.7642 77.8617 78.3042 78.2017C77.8642 78.5217 77.2342 78.6817 76.4142 78.6817C75.6742 78.6817 75.0242 78.4617 74.4642 78.0217C73.9042 77.5817 73.4842 76.7217 73.2042 75.4417L72.5442 72.4417C72.3642 71.5817 72.1542 70.8417 71.9142 70.2217C71.6942 69.5817 71.3742 69.0817 70.9542 68.7217C70.5542 68.3617 69.9542 68.1817 69.1542 68.1817H65.9142L65.8542 67.6717ZM88.1873 57.0217V57.6217C87.5073 57.6417 86.9873 57.7217 86.6273 57.8617C86.2873 57.9817 86.0573 58.2217 85.9373 58.5817C85.8173 58.9217 85.7573 59.4617 85.7573 60.2017V75.0817C85.7573 75.8017 85.8173 76.3417 85.9373 76.7017C86.0573 77.0617 86.2873 77.3017 86.6273 77.4217C86.9873 77.5217 87.5073 77.5717 88.1873 77.5717H90.3773C91.3173 77.5717 92.0773 77.4717 92.6573 77.2717C93.2573 77.0717 93.7273 76.7617 94.0673 76.3417C94.4273 75.9017 94.6973 75.3217 94.8773 74.6017C95.0573 73.8817 95.1973 73.0017 95.2973 71.9617H95.9873C95.9273 72.5817 95.8973 73.4017 95.8973 74.4217C95.8973 74.8017 95.9073 75.3517 95.9273 76.0717C95.9673 76.7717 96.0273 77.5017 96.1073 78.2617C95.0873 78.2217 93.9373 78.2017 92.6573 78.2017C91.3773 78.1817 90.2373 78.1717 89.2373 78.1717C88.7973 78.1717 88.2273 78.1717 87.5273 78.1717C86.8473 78.1717 86.1073 78.1817 85.3073 78.2017C84.5073 78.2017 83.6973 78.2117 82.8773 78.2317C82.0573 78.2317 81.2773 78.2417 80.5373 78.2617V77.6617C81.2173 77.6217 81.7273 77.5417 82.0673 77.4217C82.4273 77.3017 82.6673 77.0617 82.7873 76.7017C82.9073 76.3417 82.9673 75.8017 82.9673 75.0817V60.2017C82.9673 59.4617 82.9073 58.9217 82.7873 58.5817C82.6673 58.2217 82.4273 57.9817 82.0673 57.8617C81.7273 57.7217 81.2173 57.6417 80.5373 57.6217V57.0217C80.9573 57.0417 81.5073 57.0617 82.1873 57.0817C82.8673 57.1017 83.5973 57.1117 84.3773 57.1117C85.0773 57.1117 85.7673 57.1017 86.4473 57.0817C87.1473 57.0617 87.7273 57.0417 88.1873 57.0217ZM106.604 56.8717L113.924 75.7417C114.224 76.5017 114.564 77.0117 114.944 77.2717C115.324 77.5117 115.674 77.6417 115.994 77.6617V78.2617C115.594 78.2217 115.104 78.2017 114.524 78.2017C113.944 78.1817 113.364 78.1717 112.784 78.1717C112.004 78.1717 111.274 78.1817 110.594 78.2017C109.914 78.2017 109.364 78.2217 108.944 78.2617V77.6617C109.964 77.6217 110.614 77.4517 110.894 77.1517C111.174 76.8317 111.114 76.1617 110.714 75.1417L105.134 60.2317L105.614 59.8417L100.394 73.4017C100.074 74.2017 99.8841 74.8817 99.8241 75.4417C99.7641 75.9817 99.8141 76.4117 99.9741 76.7317C100.154 77.0517 100.444 77.2817 100.844 77.4217C101.264 77.5617 101.784 77.6417 102.404 77.6617V78.2617C101.844 78.2217 101.254 78.2017 100.634 78.2017C100.034 78.1817 99.4741 78.1717 98.9541 78.1717C98.4541 78.1717 98.0241 78.1817 97.6641 78.2017C97.3241 78.2017 97.0041 78.2217 96.7041 78.2617V77.6617C97.1041 77.5617 97.5141 77.3317 97.9341 76.9717C98.3541 76.5917 98.7341 75.9517 99.0741 75.0517L106.124 56.8717C106.204 56.8717 106.284 56.8717 106.364 56.8717C106.444 56.8717 106.524 56.8717 106.604 56.8717ZM110.264 69.6217V70.2217H101.324L101.624 69.6217H110.264ZM124.135 57.0217V57.6217C123.455 57.6417 122.935 57.7217 122.575 57.8617C122.235 57.9817 122.005 58.2217 121.885 58.5817C121.765 58.9217 121.705 59.4617 121.705 60.2017V75.0817C121.705 75.8017 121.765 76.3417 121.885 76.7017C122.005 77.0617 122.235 77.3017 122.575 77.4217C122.935 77.5417 123.455 77.6217 124.135 77.6617V78.2617C123.675 78.2217 123.095 78.2017 122.395 78.2017C121.715 78.1817 121.025 78.1717 120.325 78.1717C119.545 78.1717 118.815 78.1817 118.135 78.2017C117.455 78.2017 116.905 78.2217 116.485 78.2617V77.6617C117.165 77.6217 117.675 77.5417 118.015 77.4217C118.375 77.3017 118.615 77.0617 118.735 76.7017C118.855 76.3417 118.915 75.8017 118.915 75.0817V60.2017C118.915 59.4617 118.855 58.9217 118.735 58.5817C118.615 58.2217 118.375 57.9817 118.015 57.8617C117.675 57.7217 117.165 57.6417 116.485 57.6217V57.0217C116.905 57.0417 117.455 57.0617 118.135 57.0817C118.815 57.1017 119.545 57.1117 120.325 57.1117C121.025 57.1117 121.715 57.1017 122.395 57.0817C123.095 57.0617 123.675 57.0417 124.135 57.0217ZM145.491 57.0217V57.6217C144.811 57.6417 144.291 57.7417 143.931 57.9217C143.591 58.1017 143.361 58.3917 143.241 58.7917C143.121 59.1917 143.061 59.7617 143.061 60.5017V78.4117C142.941 78.4117 142.821 78.4117 142.701 78.4117C142.601 78.4117 142.491 78.4117 142.371 78.4117L129.771 58.9417V74.7817C129.771 75.5017 129.831 76.0717 129.951 76.4917C130.091 76.8917 130.351 77.1817 130.731 77.3617C131.131 77.5217 131.721 77.6217 132.501 77.6617V78.2617C132.141 78.2217 131.671 78.2017 131.091 78.2017C130.511 78.1817 129.961 78.1717 129.441 78.1717C128.941 78.1717 128.431 78.1817 127.911 78.2017C127.411 78.2017 126.991 78.2217 126.651 78.2617V77.6617C127.331 77.6217 127.841 77.5217 128.181 77.3617C128.541 77.1817 128.781 76.8917 128.901 76.4917C129.021 76.0717 129.081 75.5017 129.081 74.7817V60.2017C129.081 59.4617 129.021 58.9217 128.901 58.5817C128.781 58.2217 128.541 57.9817 128.181 57.8617C127.841 57.7217 127.331 57.6417 126.651 57.6217V57.0217C126.991 57.0417 127.411 57.0617 127.911 57.0817C128.431 57.1017 128.941 57.1117 129.441 57.1117C129.881 57.1117 130.301 57.1017 130.701 57.0817C131.101 57.0617 131.461 57.0417 131.781 57.0217L142.371 73.3417V60.5017C142.371 59.7617 142.301 59.1917 142.161 58.7917C142.041 58.3917 141.781 58.1017 141.381 57.9217C141.001 57.7417 140.421 57.6417 139.641 57.6217V57.0217C140.001 57.0417 140.471 57.0617 141.051 57.0817C141.651 57.1017 142.201 57.1117 142.701 57.1117C143.221 57.1117 143.731 57.1017 144.231 57.0817C144.751 57.0617 145.171 57.0417 145.491 57.0217Z" fill="black"/>
<defs>
<linearGradient id="paint0_linear_33_210" x1="103.488" y1="-6.28361" x2="38.1327" y2="105.033" gradientUnits="userSpaceOnUse">
<stop offset="0.005618" stop-color="#3F231F"/>
<stop offset="0.0843" stop-color="#664C2D"/>
<stop offset="0.382" stop-color="#A69158"/>
<stop offset="0.7973" stop-color="#998260"/>
<stop offset="0.8034" stop-color="#97805E"/>
<stop offset="0.9551" stop-color="#7D5534"/>
</linearGradient>
<linearGradient id="paint1_linear_33_210" x1="127.932" y1="8.06812" x2="62.5768" y2="119.385" gradientUnits="userSpaceOnUse">
<stop offset="0.005618" stop-color="#3F231F"/>
<stop offset="0.0843" stop-color="#664C2D"/>
<stop offset="0.382" stop-color="#A69158"/>
<stop offset="0.7973" stop-color="#998260"/>
<stop offset="0.8034" stop-color="#97805E"/>
<stop offset="0.9551" stop-color="#7D5534"/>
</linearGradient>
<linearGradient id="paint2_linear_33_210" x1="90.0614" y1="-14.1665" x2="24.706" y2="97.15" gradientUnits="userSpaceOnUse">
<stop offset="0.005618" stop-color="#3F231F"/>
<stop offset="0.0843" stop-color="#664C2D"/>
<stop offset="0.382" stop-color="#A69158"/>
<stop offset="0.7973" stop-color="#998260"/>
<stop offset="0.8034" stop-color="#97805E"/>
<stop offset="0.9551" stop-color="#7D5534"/>
</linearGradient>
<linearGradient id="paint3_linear_33_210" x1="119.041" y1="2.84726" x2="53.6853" y2="114.164" gradientUnits="userSpaceOnUse">
<stop offset="0.005618" stop-color="#3F231F"/>
<stop offset="0.0843" stop-color="#664C2D"/>
<stop offset="0.382" stop-color="#A69158"/>
<stop offset="0.7973" stop-color="#998260"/>
<stop offset="0.8034" stop-color="#97805E"/>
<stop offset="0.9551" stop-color="#7D5534"/>
</linearGradient>
<linearGradient id="paint4_linear_33_210" x1="115.255" y1="0.624855" x2="49.8993" y2="111.941" gradientUnits="userSpaceOnUse">
<stop offset="0.005618" stop-color="#3F231F"/>
<stop offset="0.0843" stop-color="#664C2D"/>
<stop offset="0.382" stop-color="#A69158"/>
<stop offset="0.5618" stop-color="#E5D9BC"/>
<stop offset="0.7973" stop-color="#998260"/>
<stop offset="0.8034" stop-color="#97805E"/>
<stop offset="0.9551" stop-color="#7D5534"/>
</linearGradient>
<linearGradient id="paint5_linear_33_210" x1="144.234" y1="17.639" x2="78.8782" y2="128.955" gradientUnits="userSpaceOnUse">
<stop offset="0.005618" stop-color="#3F231F"/>
<stop offset="0.0843" stop-color="#664C2D"/>
<stop offset="0.382" stop-color="#A69158"/>
<stop offset="0.7973" stop-color="#998260"/>
<stop offset="0.8034" stop-color="#97805E"/>
<stop offset="0.9551" stop-color="#7D5534"/>
</linearGradient>
<linearGradient id="paint6_linear_33_210" x1="95.4361" y1="-11.0111" x2="30.0808" y2="100.305" gradientUnits="userSpaceOnUse">
<stop offset="0.005618" stop-color="#3F231F"/>
<stop offset="0.0843" stop-color="#664C2D"/>
<stop offset="0.382" stop-color="#A69158"/>
<stop offset="0.7973" stop-color="#998260"/>
<stop offset="0.8034" stop-color="#97805E"/>
<stop offset="0.9551" stop-color="#7D5534"/>
</linearGradient>
</defs>
</svg>
