<svg width="24" height="24" viewBox="0 0 24 24" fill="none" xmlns="http://www.w3.org/2000/svg">
<path fill-rule="evenodd" clip-rule="evenodd" d="M16.5286 6C16.5099 5.9193 16.4905 5.83842 16.4702 5.75746C16.2062 4.70138 15.7905 3.55383 15.1126 2.65C14.4136 1.71802 13.393 1 12.0001 1C10.6072 1 9.58654 1.71802 8.88755 2.65C8.20968 3.55383 7.79393 4.70138 7.52991 5.75747C7.50967 5.83842 7.49022 5.9193 7.47151 6H5.87116C4.29177 6 2.98287 7.22455 2.87781 8.80044L2.14447 19.8004C2.02904 21.532 3.40244 23 5.13783 23H18.8623C20.5977 23 21.9711 21.532 21.8557 19.8004L21.1223 8.80044C21.0173 7.22455 19.7084 6 18.129 6H16.5286ZM7.47151 14.5C8.04449 14.5 8.99812 10.5684 9.00007 9.99817C9.00022 9.97438 9.0005 9.9506 9.0009 9.92682C9.00178 9.87413 9.00357 9.79455 9.00724 9.69194C9.01457 9.48652 9.02936 9.18999 9.05911 8.83304C9.08021 8.57976 9.10864 8.29862 9.1468 8H14.8534C14.8915 8.29862 14.9199 8.57976 14.9411 8.83305C14.9708 9.18999 14.9856 9.48652 14.9929 9.69194C14.9966 9.79455 14.9984 9.87413 14.9993 9.92682C14.9997 9.95134 15 9.97587 15.0001 10.0004C15.0001 10.0004 15.4702 14.5 16.4702 14.5C17.4702 14.5 17.0001 9.99866 17.0001 9.99866C17 9.9636 16.9996 9.92854 16.999 9.89349C16.9979 9.829 16.9958 9.7367 16.9916 9.62056C16.9834 9.38848 16.9669 9.06001 16.9341 8.66695C16.9171 8.46202 16.8954 8.23812 16.868 8H18.129C18.6555 8 19.0918 8.40818 19.1268 8.93348L19.8601 19.9335C19.8986 20.5107 19.4408 21 18.8623 21H5.13783C4.55937 21 4.10157 20.5107 4.14004 19.9335L4.87338 8.93348C4.9084 8.40818 5.3447 8 5.87116 8H7.13214C7.10471 8.23812 7.08309 8.46202 7.06601 8.66696C7.03326 9.06001 7.0168 9.38848 7.00851 9.62056C7.00436 9.7367 7.00225 9.829 7.00118 9.89349C7.0006 9.92785 7.00017 9.96221 7.00006 9.99658C6.9993 10.5672 6.89984 14.5 7.47151 14.5ZM9.53358 6H14.4666C14.2354 5.15322 13.9211 4.39466 13.5126 3.85C13.0866 3.28198 12.6072 3 12.0001 3C11.393 3 10.9136 3.28198 10.4876 3.85C10.0791 4.39466 9.76478 5.15322 9.53358 6Z" fill="#0F0F0F"/>
</svg>
